<?xml version="1.0" encoding="UTF-8"?>
<svg width="118px" height="21px" viewBox="0 0 118 21" version="1.1" xmlns="http://www.w3.org/2000/svg" xmlns:xlink="http://www.w3.org/1999/xlink">
    <!-- Generator: Sketch 48.1 (47250) - http://www.bohemiancoding.com/sketch -->
    <title>Logo</title>
    <desc>Created with Sketch.</desc>
    <defs></defs>
    <g id="Accounts-Home" stroke="none" stroke-width="1" fill="none" fill-rule="evenodd" transform="translate(-159.000000, -29.000000)">
        <g id="Menu" fill="#00C8B4" fill-rule="nonzero">
            <g id="Logo" transform="translate(159.000000, 29.000000)">
                <path d="M1.27058824,5.48 L9.6,5.48 C9.6,7.784 0.847058824,13.4 0.847058824,19.592 L0.847058824,20.6 L18.4941176,20.6 L18.4941176,15.56 L10.1647059,15.56 C10.1647059,13.256 18.9176471,7.64 18.9176471,1.448 L18.9176471,0.44 L1.27058824,0.44 L1.27058824,5.48 Z" id="Z"></path>
                <path d="M42.3529412,0.296 C36,0.296 31.4823529,4.616 31.4823529,10.52 C31.4823529,16.424 36,20.888 42.3529412,20.888 C48.7058824,20.888 53.2235294,16.424 53.2235294,10.52 C53.0823529,4.472 48.5647059,0.296 42.3529412,0.296 Z M46.4470588,10.52 C46.7294118,12.968 44.8941176,15.128 42.4941176,15.272 C42.4941176,15.272 42.3529412,15.272 42.3529412,15.272 C39.9529412,15.128 37.9764706,12.968 38.1176471,10.52 C38.1176471,10.52 38.1176471,10.52 38.1176471,10.52 C37.9764706,8.072 39.8117647,5.912 42.2117647,5.768 C42.2117647,5.768 42.2117647,5.768 42.3529412,5.768 C44.7529412,5.912 46.5882353,7.784 46.4470588,10.232 C46.4470588,10.376 46.4470588,10.376 46.4470588,10.52 Z" id="O"></path>
                <path d="M75.6705882,0.44 L66.7764706,0.44 L66.7764706,20.6 L72.9882353,20.6 L72.9882353,15.416 L75.6705882,15.416 C80.7529412,15.416 83.7176471,12.536 83.7176471,7.784 C83.7176471,3.032 80.7529412,0.44 75.6705882,0.44 Z M75.6705882,10.232 C75.5294118,10.232 75.3882353,10.232 75.2470588,10.232 L72.8470588,10.232 L72.8470588,5.48 L75.2470588,5.48 C76.3764706,5.336 77.3647059,6.2 77.5058824,7.352 C77.5058824,7.496 77.5058824,7.64 77.5058824,7.784 C77.6470588,9.08 76.8,10.088 75.6705882,10.232 Z" id="P"></path>
                <path d="M109.694118,0.44 L102.917647,0.44 L94.5882353,20.6 L101.364706,20.6 L102.352941,17.72 L109.694118,17.72 L110.682353,20.6 L117.6,20.6 L109.694118,0.44 Z M104.047059,12.968 L106.164706,7.064 L108.141176,12.968 L104.047059,12.968 Z" id="A"></path>
            </g>
        </g>
    </g>
</svg>